{
	"asset":{
		"generator":"Khronos glTF Blender I/O v4.2.60",
		"version":"2.0"
	},
	"scene":0,
	"scenes":[
		{
			"name":"Scene",
			"nodes":[
				3
			]
		}
	],
	"nodes":[
		{
			"mesh":0,
			"name":"Mesh"
		},
		{
			"children":[
				0
			],
			"name":"Geometry"
		},
		{
			"name":"Materials"
		},
		{
			"children":[
				1,
				2
			],
			"name":"ObjectCapture",
			"rotation":[
				0.7071068286895752,
				0,
				0,
				0.7071068286895752
			]
		}
	],
	"materials":[
		{
			"doubleSided":true,
			"name":"Texture.002",
			"normalTexture":{
				"index":0
			},
			"pbrMetallicRoughness":{
				"baseColorTexture":{
					"index":1
				},
				"metallicFactor":0,
				"roughnessFactor":0.8999999761581421
			}
		}
	],
	"meshes":[
		{
			"name":"Mesh.002",
			"primitives":[
				{
					"attributes":{
						"POSITION":0,
						"NORMAL":1,
						"TEXCOORD_0":2
					},
					"indices":3,
					"material":0
				}
			]
		}
	],
	"textures":[
		{
			"sampler":0,
			"source":0
		},
		{
			"sampler":0,
			"source":1
		}
	],
	"images":[
		{
			"mimeType":"image/png",
			"name":"baked_mesh_norm0",
			"uri":"baked_mesh_norm0.png"
		},
		{
			"mimeType":"image/png",
			"name":"baked_mesh_tex0",
			"uri":"baked_mesh_tex0.png"
		}
	],
	"accessors":[
		{
			"bufferView":0,
			"componentType":5126,
			"count":14213,
			"max":[
				0.06334987282752991,
				0.09494131058454514,
				-7.371614429985129e-09
			],
			"min":[
				-0.07499932497739792,
				-0.09653030335903168,
				-0.12832175195217133
			],
			"type":"VEC3"
		},
		{
			"bufferView":1,
			"componentType":5126,
			"count":14213,
			"type":"VEC3"
		},
		{
			"bufferView":2,
			"componentType":5126,
			"count":14213,
			"type":"VEC2"
		},
		{
			"bufferView":3,
			"componentType":5123,
			"count":75000,
			"type":"SCALAR"
		}
	],
	"bufferViews":[
		{
			"buffer":0,
			"byteLength":170556,
			"byteOffset":0,
			"target":34962
		},
		{
			"buffer":0,
			"byteLength":170556,
			"byteOffset":170556,
			"target":34962
		},
		{
			"buffer":0,
			"byteLength":113704,
			"byteOffset":341112,
			"target":34962
		},
		{
			"buffer":0,
			"byteLength":150000,
			"byteOffset":454816,
			"target":34963
		}
	],
	"samplers":[
		{
			"magFilter":9729,
			"minFilter":9987
		}
	],
	"buffers":[
		{
			"byteLength":604816,
			"uri":"tissue.bin"
		}
	]
}
