{"accessors" : [{"bufferView" : 0, "byteOffset" : 0, "componentType" : 5123, "count" : 75000, "type" : "SCALAR", "max" : [14212], "min" : [0]}, {"bufferView" : 1, "byteOffset" : 0, "componentType" : 5126, "count" : 14213, "type" : "VEC3", "max" : [0.06334987282752991, 0.12832175195217133, 0.09494131058454514], "min" : [-0.07499932497739792, 7.371614429985129E-09, -0.09653030335903168], "name" : "POSITION"}, {"bufferView" : 1, "byteOffset" : 12, "componentType" : 5126, "count" : 14213, "type" : "VEC3", "max" : [0.9999947547912598, 0.9999668598175049, 0.999990701675415], "min" : [-0.999994695186615, -0.9997751712799072, -1], "name" : "NORMAL"}, {"bufferView" : 1, "byteOffset" : 24, "componentType" : 5126, "count" : 14213, "type" : "VEC2", "max" : [0.9998621344566345, 0.9998481273651123], "min" : [6.2201770560932346E-06, 0.0018076300621032715], "name" : "TEXCOORD_0"}], "asset" : {"generator" : "Aspose.3D 24.6.0", "version" : "2.0"}, "buffers" : [{"uri" : "buffer.bin", "byteLength" : 8847736}], "bufferViews" : [{"buffer" : 0, "byteOffset" : 0, "byteLength" : 150000, "target" : 34963}, {"buffer" : 0, "byteOffset" : 150004, "byteLength" : 454816, "byteStride" : 32, "target" : 34962}, {"buffer" : 0, "byteOffset" : 604824, "byteLength" : 2814189}, {"buffer" : 0, "byteOffset" : 3419016, "byteLength" : 741503}, {"buffer" : 0, "byteOffset" : 4160520, "byteLength" : 4687215}], "images" : [{"mimeType" : "image/png", "bufferView" : 2}, {"mimeType" : "image/png", "bufferView" : 3}, {"mimeType" : "image/png", "bufferView" : 4}], "materials" : [{"name" : "Texture", "pbrMetallicRoughness" : {"baseColorFactor" : [1, 1, 1, 1], "baseColorTexture" : {"index" : 2, "texCoord" : 0}, "metallicFactor" : 0, "roughnessFactor" : 0.8999999761581421}, "normalTexture" : {"index" : 0, "texCoord" : 0, "scale" : 1}, "occlusionTexture" : {"index" : 1, "texCoord" : 0, "strength" : 0}, "emissiveFactor" : [0, 0, 0], "alphaMode" : "OPAQUE", "doubleSided" : false}], "meshes" : [{"primitives" : [{"attributes" : {"POSITION" : 1, "NORMAL" : 2, "TEXCOORD_0" : 3}, "indices" : 0, "material" : 0, "mode" : 4}], "name" : "Mesh"}], "nodes" : [{"mesh" : 0, "name" : "ObjectCapture"}], "samplers" : [{"magFilter" : 9729, "minFilter" : 9729, "wrapS" : 10497, "wrapT" : 10497}, {"magFilter" : 9729, "minFilter" : 9729, "wrapS" : 10497, "wrapT" : 10497}, {"magFilter" : 9729, "minFilter" : 9729, "wrapS" : 10497, "wrapT" : 10497}], "scene" : 0, "scenes" : [{"nodes" : [0]}], "textures" : [{"sampler" : 0, "source" : 0, "name" : "normal_texture"}, {"sampler" : 1, "source" : 1, "name" : "occlusion_texture"}, {"sampler" : 2, "source" : 2, "name" : "diffuseColor_texture"}]}